<?xml version="1.0" encoding="UTF-8"?>
<svg id="Layer_2" data-name="Layer 2" xmlns="http://www.w3.org/2000/svg" viewBox="0 0 111.41 115.75">
  <defs>
    <style>
      .cls-1 {
        fill: #fdb614;
      }

      .cls-2 {
        fill: #e92062;
      }

      .cls-3 {
        fill: #63c9dc;
      }
    </style>
  </defs>
  <g id="Layer_1-2" data-name="Layer 1">
    <g>
      <path class="cls-3" d="M9.98,104.57c-4.54-1.85-7.57-4.36-9.02-7.11-1.45-2.76-1.22-5.64,.48-8.63,1.7-2.99,4.05-4.62,6.92-5.1,2.87-.48,6.13,.16,10.03,1.72,1.27,.51,2.4,1,3.38,1.5,.98,.5,1.9,1.06,2.77,1.69-.79,2.47-1.18,3.7-1.97,6.17-.92-.69-1.88-1.29-2.89-1.79-1.01-.5-2.06-.97-3.15-1.4-1.53-.61-2.9-.87-4.12-.79-1.23,.09-2.17,.81-2.81,2.2-.64,1.39-.71,2.52-.2,3.38,.52,.86,1.5,1.61,2.93,2.2,.75,.31,1.49,.52,2.21,.64,.18-.46,.26-.69,.44-1.15-1.5-.58-2.25-.88-3.73-1.52,.72-1.69,1.08-2.53,1.81-4.22,4.08,1.75,6.16,2.51,10.36,3.8-1.23,4.01-1.85,6.01-3.08,10.01-1.18,.19-2.65,.2-4.39,.02-1.74-.18-3.75-.71-5.97-1.61Z"/>
      <path class="cls-3" d="M31.17,110.61c.27-1.33,.4-2,.67-3.33-4.13-.83-6.19-1.34-10.25-2.55,.55-1.84,.83-2.77,1.38-4.61,5.77-3.3,8.44-5.16,13.3-9.16,2.67,.5,4.01,.7,6.7,1.01-.49,4.28-.74,6.41-1.23,10.69,.78,.09,1.17,.13,1.95,.21-.23,2.43-.35,3.65-.59,6.08-.83-.08-1.24-.12-2.07-.22-.16,1.35-.23,2.03-.39,3.38-3.81-.44-5.71-.74-9.49-1.49Zm.37-9.31c1.22,.26,1.83,.38,3.05,.61,.21-1.15,.32-1.73,.53-2.88-1.4,.93-2.12,1.39-3.58,2.27Z"/>
      <path class="cls-3" d="M49.07,112.76c.25-5.91,.37-8.86,.62-14.77-2.26-.09-3.4-.17-5.65-.39,.21-2.18,.32-3.27,.53-5.45,7.42,.73,11.18,.73,18.6,0,.21,2.18,.32,3.27,.53,5.45-2.26,.22-3.39,.3-5.65,.39,.24,5.91,.36,8.86,.6,14.77-3.83,.16-5.75,.16-9.58,0Z"/>
      <path class="cls-3" d="M78.52,110.55c-4.5,.97-7.93,.54-10.11-1-2.18-1.54-3.38-4.02-3.72-7.36-.34-3.36,.29-6.01,1.74-8.01,1.46-1.99,3.98-3.25,7.67-4.05,3.69-.8,6.53-.71,8.69,.5,2.17,1.21,3.85,3.36,4.93,6.56,1.07,3.18,1,5.94-.37,8.25s-4.34,4.13-8.83,5.1Zm-1.37-6.34c1.06-.23,1.72-.72,2-1.45,.27-.73,.24-1.75-.07-3.06s-.76-2.22-1.31-2.76c-.55-.54-1.31-.69-2.29-.48-.98,.21-1.6,.67-1.88,1.38-.28,.72-.3,1.73-.05,3.05,.25,1.32,.64,2.26,1.19,2.81,.55,.55,1.36,.73,2.42,.5Z"/>
      <path class="cls-3" d="M92.84,106.14c-2.72-7.64-4.08-11.45-6.8-19.09,3.02-1.08,4.52-1.68,7.46-3.02,2.39,5.27,3.59,7.91,5.98,13.18,3.68-1.67,5.5-2.6,9.05-4.62,1.15,2.01,1.72,3.02,2.87,5.03-7.18,4.1-10.92,5.8-18.56,8.52Z"/>
    </g>
    <g>
      <path class="cls-2" d="M64.52,63.02c.09,.53,.14-.37,.04,.15h0l4.9,7.5,6.7-11.68-11.64,4.02Z"/>
      <path class="cls-1" d="M32.87,63.26l6.3,9.66,5.65-7.36h0c-.04-.49-6.39-.9-6.45-1.38l-5.5-.91Z"/>
      <path class="cls-2" d="M92.5,45.72c-3.49-3.36-5.1-7-5.81-8.97-.34-3.31-1.04-7.34-2.45-11.8-1.16-3.67-2.55-6.81-3.88-9.38-1.17-2.47-2.63-5.19-4.46-8.06-1.86-2.9-3.74-5.4-5.51-7.52-1.92,2.31-3.93,4.98-5.89,8.01-2.99,4.62-5.19,9.02-6.83,12.88-1.96-.34-4.44-.61-7.29-.5-3.14,.11-5.8,.63-7.86,1.18-1.7-2.89-3.88-6.15-6.67-9.54-2.89-3.51-5.77-6.36-8.35-8.62-1.69,2.92-3.4,6.14-5.04,9.66-1.23,2.62-2.3,5.16-3.24,7.58-.78,2.06-1.53,4.22-2.24,6.49-1.51,4.81-2.63,9.38-3.45,13.62-.34,1.44-1.36,4.88-4.46,7.92-2.82,2.77-5.91,3.77-7.35,4.14,1.46,3.5,3.95,8.38,8.19,13.33,4.92,5.74,10.16,9.22,13.72,11.19-.55-.59-1.4-1.67-1.91-3.24-.34-1.05-.42-1.98-.42-2.65,1.67,1.71,15.14,15.09,35.26,12.97,16.91-1.79,26.68-13.28,28.61-15.65,.04,.64,.02,1.43-.15,2.31-.38,1.99-1.32,3.41-1.94,4.19,3.66-2.77,8.28-6.88,12.6-12.68,3-4.03,5.14-7.9,6.66-11.19-2.04-.59-6.06-2.05-9.82-5.67Zm-26.12-30.4c1.68-3.08,3.4-5.9,5.1-8.44,2.07,2.95,4.35,6.72,6.37,11.31,2.41,5.48,3.73,10.49,4.48,14.49-2.31-2.02-5.29-4.32-8.99-6.48-3.71-2.17-7.19-3.65-10.09-4.67,.93-1.99,1.97-4.07,3.13-6.2Zm-.65,23.53c4.24-2.08,9.82-.6,12.77,3.76-2.54,1.22-5.31,2.7-8.19,4.51-3.26,2.04-6.09,4.13-8.5,6.1-3.09-5.32-.96-11.98,3.93-14.38Zm-10.74,16.23c2.96-.25,5.17,.82,6,1.28-.51,.67-5.03,3.67-5.82,3.88-.68,0-5.58-2.23-6.03-2.77,.72-.59,2.77-2.13,5.86-2.39Zm-7.49-1.6c-3.42-.77-7.05-1.7-10.84-2.84-3.91-1.17-7.55-2.42-10.91-3.7,2.25-6.51,9.43-9.68,15.21-7.33,5.1,2.07,8.1,8.04,6.54,13.87ZM23.48,18.93c1.51-3.67,3.15-6.96,4.78-9.87,1.82,1.79,3.85,4.03,5.84,6.8,1.8,2.5,3.19,4.89,4.26,7-2.58,1.13-5.46,2.59-8.46,4.51-5.12,3.27-9.01,6.83-11.84,9.87,.99-5.3,2.64-11.56,5.42-18.3Zm31.86,60.46c-15.34,1.77-30.39-6.62-37.26-20.89,5.51,2.75,18.98,8.55,36.64,6.82,15.25-1.49,26.11-7.86,31.2-11.31-4.47,13.8-16.48,23.76-30.58,25.38Z"/>
      <path class="cls-3" d="M16.13,29.51c13.46,2.85,26.91,5.71,40.37,8.56,.02,3.11,.04,6.22,.06,9.33,1.63,2.52,3.25,5.03,4.88,7.55,3.22,.31,6.43,.61,9.65,.92,1.22-2.34,5.3-10.27,6.12-11.9,5.07,.61,10.14,1.22,15.2,1.84-.64-.76-1.28-1.52-1.92-2.28-.62-.75-1.24-1.49-1.86-2.24-2.09-.57-4.18-1.14-6.29-1.7-22.11-5.85-43.8-10.4-64.99-13.87"/>
    </g>
  </g>
</svg>